<?xml version="1.0" standalone="no"?><!DOCTYPE svg PUBLIC "-//W3C//DTD SVG 1.1//EN" "http://www.w3.org/Graphics/SVG/1.1/DTD/svg11.dtd"><svg t="1738673825874" class="icon" viewBox="0 0 1024 1024" version="1.1" xmlns="http://www.w3.org/2000/svg" p-id="35408" xmlns:xlink="http://www.w3.org/1999/xlink" width="32" height="32"><path d="M776.533333 364.8h-98.133333c-12.8 0-27.733333 12.8-27.733333 27.733333 0 14.933333 14.933333 27.733333 27.733333 27.733334h98.133333c12.8 0 27.733333-12.8 27.733334-27.733334-2.133333-14.933333-17.066667-27.733333-27.733334-27.733333z m0 113.066667h-98.133333c-12.8 0-27.733333 12.8-27.733333 27.733333 0 14.933333 14.933333 27.733333 27.733333 27.733333h98.133333c12.8 0 27.733333-12.8 27.733334-27.733333-2.133333-14.933333-17.066667-27.733333-27.733334-27.733333z m-215.466666-113.066667H490.666667c-25.6 0-46.933333 21.333333-46.933334 49.066667v70.4c0 27.733333 21.333333 49.066667 46.933334 49.066666h68.266666c25.6 0 46.933333-21.333333 46.933334-49.066666v-70.4c2.133333-27.733333-19.2-49.066667-44.8-49.066667z m0 117.333333h-68.266667v-68.266666h68.266667v68.266666z m-206.933334-117.333333h-70.4c-25.6 0-46.933333 21.333333-46.933333 49.066667v70.4c0 27.733333 21.333333 49.066667 46.933333 49.066666h68.266667c25.6 0 46.933333-21.333333 46.933333-49.066666v-70.4c2.133333-27.733333-19.2-49.066667-44.8-49.066667z m0 117.333333h-68.266666v-68.266666h68.266666v68.266666z m0 0" p-id="35409" fill="#82cb87"></path><path d="M806.4 776.533333H241.066667c-64 0-117.333333-51.2-117.333334-117.333333V234.666667c0-64 51.2-117.333333 117.333334-117.333334h565.333333c64 0 117.333333 51.2 117.333333 117.333334v426.666666c-2.133333 64-53.333333 115.2-117.333333 115.2zM241.066667 170.666667c-36.266667 0-64 29.866667-64 64v426.666666c0 36.266667 29.866667 64 64 64h565.333333c36.266667 0 64-29.866667 64-64V234.666667c0-36.266667-29.866667-64-64-64H241.066667zM716.8 915.2H349.866667c-17.066667 0-29.866667-12.8-29.866667-29.866667 0-17.066667 12.8-29.866667 29.866667-29.866666h366.933333c17.066667 0 29.866667 12.8 29.866667 29.866666 0 17.066667-12.8 29.866667-29.866667 29.866667z" p-id="35410" fill="#82cb87"></path></svg>